<svg xmlns="http://www.w3.org/2000/svg" version="1.1" x="0" y="0" viewBox="0 0 70 70" enable-background="new 0 0 70 70" xml:space="preserve"><style>
    .style0{
        stroke: #F8981C;
        stroke-width:   4;
        stroke-miterlimit:  10;
        fill:   none;
    }
    .style1{
        fill:   #F8981C;
    }
</style><circle cx="34.5" cy="35.0" r="27.2" class="style0"/><path d="M22.0 26.4c0.4 0.1 0.7 0.5 0.7 0.9l0 12.7c0 1.1 0.1 2.2 0.3 3.1 0.5 2.7 2.6 4.9 5.3 5.6 1.7 0.4 3.6 0.6 5.6 0.6 2 0 3.9-0.2 5.6-0.6 2.8-0.6 4.9-2.9 5.4-5.7 0.1-0.9 0.2-1.8 0.2-2.8V25.2l0-1.7c0-0.9 0.2-1.3 1.1-1.5l1.5-0.2c0.1 0 0.2-0.1 0.2-0.1 0.2-0.2 0.2-0.4 0-0.6 0 0-2 0-4.4 0-2.5 0-4 1-4 4.2 0 3.5 0 14.7 0 14.7 0 1.3-0.2 2.4-0.5 3.5-0.4 1.2-1.2 2.1-2.3 2.6-1.1 0.5-2.5 0.8-4.1 0.8-1.5 0-2.9-0.3-3.9-0.7-1.1-0.5-2.1-1.6-2.4-2.6-0.3-1-0.5-2.4-0.5-3.5V27.4c0-0.5 0.3-0.9 0.8-0.9l1.4-0.2c0.1 0 0.1 0 0.2-0.1 0.1-0.1 0.1-0.4 0-0.5h-7.4c-0.1 0.1-0.1 0.4 0 0.5 0 0 0.1 0.1 0.2 0.1L22.0 26.4z" class="style1"/></svg>